<?xml version="1.0" encoding="UTF-8"?>
<svg id="rp-architecture" width="100%" xmlns="http://www.w3.org/2000/svg" xmlns:xlink="http://www.w3.org/1999/xlink" style="max-width: 1134.4765625px;" viewBox="-8 -8 1134.4765625 223.65713500976562" role="graphics-document document" aria-roledescription="flowchart-v2"><style>#rp-architecture{font-family:"trebuchet ms",verdana,arial,sans-serif;font-size:16px;fill:#000000;}#rp-architecture .error-icon{fill:#552222;}#rp-architecture .error-text{fill:#552222;stroke:#552222;}#rp-architecture .edge-thickness-normal{stroke-width:2px;}#rp-architecture .edge-thickness-thick{stroke-width:3.5px;}#rp-architecture .edge-pattern-solid{stroke-dasharray:0;}#rp-architecture .edge-pattern-dashed{stroke-dasharray:3;}#rp-architecture .edge-pattern-dotted{stroke-dasharray:2;}#rp-architecture .marker{fill:#666;stroke:#666;}#rp-architecture .marker.cross{stroke:#666;}#rp-architecture svg{font-family:"trebuchet ms",verdana,arial,sans-serif;font-size:16px;}#rp-architecture .label{font-family:"trebuchet ms",verdana,arial,sans-serif;color:#000000;}#rp-architecture .cluster-label text{fill:#333;}#rp-architecture .cluster-label span,#rp-architecture p{color:#333;}#rp-architecture .label text,#rp-architecture span,#rp-architecture p{fill:#000000;color:#000000;}#rp-architecture .node rect,#rp-architecture .node circle,#rp-architecture .node ellipse,#rp-architecture .node polygon,#rp-architecture .node path{fill:#eee;stroke:#999;stroke-width:1px;}#rp-architecture .flowchart-label text{text-anchor:middle;}#rp-architecture .node .katex path{fill:#000;stroke:#000;stroke-width:1px;}#rp-architecture .node .label{text-align:center;}#rp-architecture .node.clickable{cursor:pointer;}#rp-architecture .arrowheadPath{fill:#333333;}#rp-architecture .edgePath .path{stroke:#666;stroke-width:2.0px;}#rp-architecture .flowchart-link{stroke:#666;fill:none;}#rp-architecture .edgeLabel{background-color:white;text-align:center;}#rp-architecture .edgeLabel rect{opacity:0.5;background-color:white;fill:white;}#rp-architecture .labelBkg{background-color:rgba(255, 255, 255, 0.5);}#rp-architecture .cluster rect{fill:hsl(0, 0%, 98.9215686275%);stroke:#707070;stroke-width:1px;}#rp-architecture .cluster text{fill:#333;}#rp-architecture .cluster span,#rp-architecture p{color:#333;}#rp-architecture div.mermaidTooltip{position:absolute;text-align:center;max-width:200px;padding:2px;font-family:"trebuchet ms",verdana,arial,sans-serif;font-size:12px;background:hsl(-160, 0%, 93.3333333333%);border:1px solid #707070;border-radius:2px;pointer-events:none;z-index:100;}#rp-architecture .flowchartTitleText{text-anchor:middle;font-size:18px;fill:#000000;}#rp-architecture :root{--mermaid-font-family:"trebuchet ms",verdana,arial,sans-serif;}</style><g><marker id="rp-architecture_flowchart-pointEnd" class="marker flowchart" viewBox="0 0 10 10" refX="6" refY="5" markerUnits="userSpaceOnUse" markerWidth="12" markerHeight="12" orient="auto"><path d="M 0 0 L 10 5 L 0 10 z" class="arrowMarkerPath" style="stroke-width: 1; stroke-dasharray: 1, 0;"></path></marker><marker id="rp-architecture_flowchart-pointStart" class="marker flowchart" viewBox="0 0 10 10" refX="4.5" refY="5" markerUnits="userSpaceOnUse" markerWidth="12" markerHeight="12" orient="auto"><path d="M 0 5 L 10 10 L 10 0 z" class="arrowMarkerPath" style="stroke-width: 1; stroke-dasharray: 1, 0;"></path></marker><marker id="rp-architecture_flowchart-circleEnd" class="marker flowchart" viewBox="0 0 10 10" refX="11" refY="5" markerUnits="userSpaceOnUse" markerWidth="11" markerHeight="11" orient="auto"><circle cx="5" cy="5" r="5" class="arrowMarkerPath" style="stroke-width: 1; stroke-dasharray: 1, 0;"></circle></marker><marker id="rp-architecture_flowchart-circleStart" class="marker flowchart" viewBox="0 0 10 10" refX="-1" refY="5" markerUnits="userSpaceOnUse" markerWidth="11" markerHeight="11" orient="auto"><circle cx="5" cy="5" r="5" class="arrowMarkerPath" style="stroke-width: 1; stroke-dasharray: 1, 0;"></circle></marker><marker id="rp-architecture_flowchart-crossEnd" class="marker cross flowchart" viewBox="0 0 11 11" refX="12" refY="5.2" markerUnits="userSpaceOnUse" markerWidth="11" markerHeight="11" orient="auto"><path d="M 1,1 l 9,9 M 10,1 l -9,9" class="arrowMarkerPath" style="stroke-width: 2; stroke-dasharray: 1, 0;"></path></marker><marker id="rp-architecture_flowchart-crossStart" class="marker cross flowchart" viewBox="0 0 11 11" refX="-1" refY="5.2" markerUnits="userSpaceOnUse" markerWidth="11" markerHeight="11" orient="auto"><path d="M 1,1 l 9,9 M 10,1 l -9,9" class="arrowMarkerPath" style="stroke-width: 2; stroke-dasharray: 1, 0;"></path></marker><g class="root"><g class="clusters"></g><g class="edgePaths"><path d="M150.594,156.389L165.242,156.389C179.891,156.389,209.188,156.389,242.923,156.389C276.659,156.389,314.834,156.389,333.921,156.389L353.009,156.389" id="L-AC-ISR-0" class="edge-thickness-normal edge-pattern-solid flowchart-link LS-AC LE-ISR" style="fill:none;" marker-end="url(#rp-architecture_flowchart-pointEnd)"></path><path d="M436.707,156.389L457.408,156.389C478.108,156.389,519.509,156.389,553.862,156.389C588.215,156.389,615.52,156.389,629.173,156.389L642.825,156.389" id="L-ISR-DUO-0" class="edge-thickness-normal edge-pattern-solid flowchart-link LS-ISR LE-DUO" style="fill:none;" marker-end="url(#rp-architecture_flowchart-pointEnd)"></path><path d="M809.238,139.639L829.734,134.2C850.23,128.761,891.222,117.883,926.539,106.714C961.855,95.545,991.495,84.084,1006.315,78.354L1021.135,72.623" id="L-DUO-FR-0" class="edge-thickness-normal edge-pattern-solid flowchart-link LS-DUO LE-FR" style="fill:none;" marker-end="url(#rp-architecture_flowchart-pointEnd)"></path><path d="M844.109,166.526L858.794,168.045C873.478,169.563,902.846,172.601,932.358,174.12C961.869,175.639,991.523,175.639,1006.35,175.639L1021.177,175.639" id="L-DUO-CLOUD-0" class="edge-thickness-normal edge-pattern-solid flowchart-link LS-DUO LE-CLOUD" style="fill:none;" marker-end="url(#rp-architecture_flowchart-pointEnd)"></path><path d="M155.648,39.337L169.454,39.337C183.26,39.337,210.872,39.337,237.601,39.337C264.33,39.337,290.175,39.337,303.098,39.337L316.02,39.337" id="L-ADMIN-RP-0" class="edge-thickness-normal edge-pattern-solid flowchart-link LS-ADMIN LE-RP" style="fill:none;" marker-end="url(#rp-architecture_flowchart-pointEnd)"></path><path d="M473.695,39.337L488.231,39.337C502.767,39.337,531.839,39.337,560.582,39.337C589.326,39.337,617.741,39.337,631.949,39.337L646.157,39.337" id="L-RP-AUTH-0" class="edge-thickness-normal edge-pattern-solid flowchart-link LS-RP LE-AUTH" style="fill:none;" marker-end="url(#rp-architecture_flowchart-pointEnd)"></path><path d="M840.777,39.337L856.017,39.337C871.257,39.337,901.736,39.337,930.781,40.809C959.827,42.281,987.438,45.224,1001.244,46.696L1015.05,48.168" id="L-AUTH-FR-0" class="edge-thickness-normal edge-pattern-solid flowchart-link LS-AUTH LE-FR" style="fill:none;" marker-end="url(#rp-architecture_flowchart-pointEnd)"></path></g><g class="edgeLabels"><g class="edgeLabel" transform="translate(238.484375, 156.38924980163574)"><g class="label" transform="translate(-41.7109375, -9.25)"><rect rx="0" ry="0" width="83.421875" height="18.5"></rect><text style=""><tspan xml:space="preserve" dy="1em" x="0" class="row">IKEv2 + EAP</tspan></text></g></g><g class="edgeLabel" transform="translate(560.91015625, 156.38924980163574)"><g class="label" transform="translate(-62.21484375, -9.25)"><rect rx="0" ry="0" width="124.4296875" height="18.5"></rect><text style=""><tspan xml:space="preserve" dy="1em" x="0" class="row">RADIUS 1812/udp</tspan></text></g></g><g class="edgeLabel" transform="translate(932.21484375, 107.00530242919922)"><g class="label" transform="translate(-63.10546875, -9.25)"><rect rx="0" ry="0" width="126.2109375" height="18.5"></rect><text style=""><tspan xml:space="preserve" dy="1em" x="0" class="row">primary password</tspan></text></g></g><g class="edgeLabel" transform="translate(932.21484375, 175.63924980163574)"><g class="label" transform="translate(-48.7890625, -9.25)"><rect rx="0" ry="0" width="97.578125" height="18.5"></rect><text style=""><tspan xml:space="preserve" dy="1em" x="0" class="row">second factor</tspan></text></g></g><g class="edgeLabel" transform="translate(238.484375, 39.33686828613281)"><g class="label" transform="translate(-57.8359375, -9.25)"><rect rx="0" ry="0" width="115.671875" height="18.5"></rect><text style=""><tspan xml:space="preserve" dy="1em" x="0" class="row">HTTPS via Nginx</tspan></text></g></g><g class="edgeLabel" transform="translate(560.91015625, 39.33686828613281)"><g class="label" transform="translate(-40.30078125, -9.25)"><rect rx="0" ry="0" width="80.6015625" height="18.5"></rect><text style=""><tspan xml:space="preserve" dy="1em" x="0" class="row">root helper</tspan></text></g></g><g class="edgeLabel"><g class="label" transform="translate(0, 0)"><rect rx="0" ry="0" width="0" height="0"></rect><text style=""><tspan xml:space="preserve" dy="1em" x="0" class="row"></tspan></text></g></g></g><g class="nodes"><g class="node default default flowchart-label" id="flowchart-AC-0" data-node="true" data-id="AC" transform="translate(77.82421875, 156.38924980163574)"><rect class="basic label-container" style="" rx="0" ry="0" x="-72.76953125" y="-16.75" width="145.5390625" height="33.5"></rect><g class="label" style="" transform="translate(0, -9.25)"><rect></rect><text style=""><tspan xml:space="preserve" dy="1em" x="0" class="row">AnyConnect client</tspan></text></g></g><g class="node default default flowchart-label" id="flowchart-ISR-1" data-node="true" data-id="ISR" transform="translate(397.5078125, 156.38924980163574)"><rect class="basic label-container" style="" rx="0" ry="0" x="-39.19921875" y="-16.75" width="78.3984375" height="33.5"></rect><g class="label" style="" transform="translate(0, -9.25)"><rect></rect><text style=""><tspan xml:space="preserve" dy="1em" x="0" class="row">Cisco ISR</tspan></text></g></g><g class="node default default flowchart-label" id="flowchart-DUO-3" data-node="true" data-id="DUO" transform="translate(746.1171875, 156.38924980163574)"><rect class="basic label-container" style="" rx="0" ry="0" x="-97.9921875" y="-16.75" width="195.984375" height="33.5"></rect><g class="label" style="" transform="translate(0, -9.25)"><rect></rect><text style=""><tspan xml:space="preserve" dy="1em" x="0" class="row">Duo Authentication Proxy</tspan></text></g></g><g class="node default default flowchart-label" id="flowchart-FR-5" data-node="true" data-id="FR" transform="translate(1069.3984375, 53.96186828613281)"><rect class="basic label-container" style="" rx="0" ry="0" x="-49.078125" y="-16.75" width="98.15625" height="33.5"></rect><g class="label" style="" transform="translate(0, -9.25)"><rect></rect><text style=""><tspan xml:space="preserve" dy="1em" x="0" class="row">FreeRADIUS</tspan></text></g></g><g class="node default default flowchart-label" id="flowchart-CLOUD-7" data-node="true" data-id="CLOUD" transform="translate(1069.3984375, 175.63924980163574)"><path style="" d="M 0,10.178597895360902 a 42.921875,10.178597895360902 0,0,0 85.84375 0 a 42.921875,10.178597895360902 0,0,0 -85.84375 0 l 0,43.6785978953609 a 42.921875,10.178597895360902 0,0,0 85.84375 0 l 0,-43.6785978953609" transform="translate(-42.921875,-32.017896843041356)"></path><g class="label" style="" transform="translate(0, -9.25)"><rect></rect><text style=""><tspan xml:space="preserve" dy="1em" x="0" class="row">Duo cloud</tspan></text></g></g><g class="node default default flowchart-label" id="flowchart-ADMIN-8" data-node="true" data-id="ADMIN" transform="translate(77.82421875, 39.33686828613281)"><rect class="basic label-container" style="" rx="0" ry="0" x="-77.82421875" y="-16.75" width="155.6484375" height="33.5"></rect><g class="label" style="" transform="translate(0, -9.25)"><rect></rect><text style=""><tspan xml:space="preserve" dy="1em" x="0" class="row">Panel administrator</tspan></text></g></g><g class="node default default flowchart-label" id="flowchart-RP-9" data-node="true" data-id="RP" transform="translate(397.5078125, 39.33686828613281)"><rect class="basic label-container" style="" rx="0" ry="0" x="-76.1875" y="-16.75" width="152.375" height="33.5"></rect><g class="label" style="" transform="translate(0, -9.25)"><rect></rect><text style=""><tspan xml:space="preserve" dy="1em" x="0" class="row">RadiusPilot console</tspan></text></g></g><g class="node default default flowchart-label" id="flowchart-AUTH-11" data-node="true" data-id="AUTH" transform="translate(746.1171875, 39.33686828613281)"><path style="" d="M 0,15.057912658762707 a 94.66015625,15.057912658762707 0,0,0 189.3203125 0 a 94.66015625,15.057912658762707 0,0,0 -189.3203125 0 l 0,48.5579126587627 a 94.66015625,15.057912658762707 0,0,0 189.3203125 0 l 0,-48.5579126587627" transform="translate(-94.66015625,-39.33686898814406)"></path><g class="label" style="" transform="translate(0, -9.25)"><rect></rect><text style=""><tspan xml:space="preserve" dy="1em" x="0" class="row">generated authorize file</tspan></text></g></g></g></g></g></svg>